# xmcd
# 
# Track frame offsets:
#     150
#     18785
#     33443
#     49623
#     66225
#     83643
#     101768
#     117000
#     131210
#     144238
#     156180
#     169588
#     184963
#     201223
#     219083
# 
# Disc length: 3142
# 
# Revision: 2
# Processed by: cddbd v1.5.2PL0 Copyright (c) Steve Scherf et al.
# Submitted via: fre:ac v1.0.27
# 
DISCID=c60c440f
DTITLE=Yuri - 15 Éxitos De Oro
DYEAR=1988
DGENRE=Latin
TTITLE0=Esperanzas
TTITLE1=Dame Un Beso
TTITLE2=Primer Amor
TTITLE3=Déjala
TTITLE4=Es Ella Más Que Yo
TTITLE5=Este Amor No Se Toca
TTITLE6=Y Ahora Juntos (A Duo Con Oscar Athie)
TTITLE7=Que Te Pasa
TTITLE8=Mama Dame
TTITLE9=No Sé Que Tienes Tú
TTITLE10=Deja
TTITLE11=Tiempos Mejores
TTITLE12=Un Corazon Herido
TTITLE13=Maldita Primavera (Maledetta Primavera)
TTITLE14=Yo Te Pido Amor
EXTD=
EXTT0=
EXTT1=
EXTT2=
EXTT3=
EXTT4=
EXTT5=
EXTT6=
EXTT7=
EXTT8=
EXTT9=
EXTT10=
EXTT11=
EXTT12=
EXTT13=
EXTT14=
PLAYORDER=
